# xmcd
# 
# Track frame offsets:
#     150
#     18600
#     37887
#     56670
#     73328
#     90552
#     101391
#     119867
#     136060
#     159193
# 
# Disc length: 2420
# 
# Revision: 2
# Processed by: cddbd v1.5.2PL0 Copyright (c) Steve Scherf et al.
# Submitted via: fre:ac v1.0.17
# 
DISCID=8209720a
DTITLE=Vox Interium - Yearing
DYEAR=2004
DGENRE=death metal
TTITLE0=Everything Gets Back
TTITLE1=Very Strange Dream
TTITLE2=Creators Of Rules
TTITLE3=Wooden Wars
TTITLE4=Deadly Injection
TTITLE5=Loneliness
TTITLE6=Downtrodden
TTITLE7=The Crime
TTITLE8=Reality When You Die
TTITLE9=Into The Heart (Instrumental)
EXTD=
EXTT0=
EXTT1=
EXTT2=
EXTT3=
EXTT4=
EXTT5=
EXTT6=
EXTT7=
EXTT8=
EXTT9=
PLAYORDER=
